# xmcd
#
# Track frame offsets:
#	150
#	15290
#	28048
#	45457
#	71865
#
# Disc length: 1171 seconds
#
# Revision: 0
# Processed by: cddbd v1.5.2PL0 Copyright (c) Steve Scherf et al.
# Submitted via: EasyCDDAExtractor 15.0.0.1
#
DISCID=36049105
DTITLE=Andreas Kummert - Dirt Band (Promo Disc)
DYEAR=2011
DGENRE=Blues
TTITLE0=Let Your Soul Go
TTITLE1=Great Heights
TTITLE2=Like My Daddy Said
TTITLE3=Ballad Of No One
TTITLE4=Judas
EXTD=
EXTT0=
EXTT1=
EXTT2=
EXTT3=
EXTT4=
PLAYORDER=
